# xmcd CD database file
#
# Track frame offsets:
#	150
#	15060
#	29890
#	48670
#	66712
#	83025
#	99420
#	111665
#	127220
#	146460
#	163137
#	177312
#	195525
#
# Disc length: 2739 seconds
#
# Revision: 2
# Processed by: cddbd v1.5.2PL0 Copyright (c) Steve Scherf et al.
# Submitted via: CDex 1.70beta2
#
DISCID=c00ab10d
DTITLE=Troy Cassar-Daley - Beyond The Dancing
DYEAR=1995
DGENRE=Country
TTITLE0=My Home Town
TTITLE1=Dream Out Loud
TTITLE2=End Of The Road
TTITLE3=Working In Blues
TTITLE4=Beyond The Dancing
TTITLE5=Plant Your Fields
TTITLE6=Texas Swing
TTITLE7=Bitter Tears
TTITLE8=Six Stringer
TTITLE9=Send Me Down Your Love
TTITLE10=Greater Times
TTITLE11=No Regrets
TTITLE12=Beyond The Dancing (Reprise)
EXTD=YEAR: 1995
EXTT0=
EXTT1=
EXTT2=
EXTT3=
EXTT4=
EXTT5=
EXTT6=
EXTT7=
EXTT8=
EXTT9=
EXTT10=
EXTT11=
EXTT12=
PLAYORDER=
